<mxfile>
    <diagram id="_dfZkeECye7_tveNfQzP" name="Page-1">
        <mxGraphModel dx="1388" dy="866" grid="1" gridSize="10" guides="1" tooltips="1" connect="1" arrows="1" fold="1" page="1" pageScale="1" pageWidth="850" pageHeight="1100" math="0" shadow="0">
            <root>
                <mxCell id="0"/>
                <mxCell id="1" parent="0"/>
                <mxCell id="38" value="" style="edgeStyle=orthogonalEdgeStyle;rounded=0;orthogonalLoop=1;jettySize=auto;html=1;" parent="1" source="2" target="37" edge="1">
                    <mxGeometry relative="1" as="geometry"/>
                </mxCell>
                <mxCell id="2" value="inicio" style="ellipse;whiteSpace=wrap;html=1;fillColor=#008a00;strokeColor=#005700;fontColor=#ffffff;" parent="1" vertex="1">
                    <mxGeometry x="125" y="70" width="120" height="80" as="geometry"/>
                </mxCell>
                <mxCell id="42" value="" style="edgeStyle=orthogonalEdgeStyle;rounded=0;orthogonalLoop=1;jettySize=auto;html=1;" parent="1" source="37" target="41" edge="1">
                    <mxGeometry relative="1" as="geometry"/>
                </mxCell>
                <mxCell id="37" value="Leer juego del usuario" style="shape=parallelogram;perimeter=parallelogramPerimeter;whiteSpace=wrap;html=1;fixedSize=1;" parent="1" vertex="1">
                    <mxGeometry x="125" y="180" width="120" height="60" as="geometry"/>
                </mxCell>
                <mxCell id="46" value="" style="edgeStyle=orthogonalEdgeStyle;rounded=0;orthogonalLoop=1;jettySize=auto;html=1;" parent="1" source="41" target="45" edge="1">
                    <mxGeometry relative="1" as="geometry"/>
                </mxCell>
                <mxCell id="41" value="Guardar en variable userGame" style="whiteSpace=wrap;html=1;" parent="1" vertex="1">
                    <mxGeometry x="125" y="270" width="120" height="60" as="geometry"/>
                </mxCell>
                <mxCell id="48" value="" style="edgeStyle=orthogonalEdgeStyle;rounded=0;orthogonalLoop=1;jettySize=auto;html=1;" parent="1" source="45" target="47" edge="1">
                    <mxGeometry relative="1" as="geometry"/>
                </mxCell>
                <mxCell id="45" value="Crear&amp;nbsp; juego del computador randGame = rand(0..2)" style="whiteSpace=wrap;html=1;" parent="1" vertex="1">
                    <mxGeometry x="105" y="360" width="160" height="60" as="geometry"/>
                </mxCell>
                <mxCell id="50" value="si" style="edgeStyle=orthogonalEdgeStyle;rounded=0;orthogonalLoop=1;jettySize=auto;html=1;fontSize=15;" parent="1" source="47" target="49" edge="1">
                    <mxGeometry relative="1" as="geometry"/>
                </mxCell>
                <mxCell id="73" value="si no" style="edgeStyle=orthogonalEdgeStyle;rounded=0;orthogonalLoop=1;jettySize=auto;html=1;fontSize=15;" parent="1" source="47" target="72" edge="1">
                    <mxGeometry relative="1" as="geometry"/>
                </mxCell>
                <mxCell id="140" value="no" style="edgeStyle=orthogonalEdgeStyle;rounded=0;orthogonalLoop=1;jettySize=auto;html=1;fontSize=15;entryX=0;entryY=0.5;entryDx=0;entryDy=0;" parent="1" source="47" target="139" edge="1">
                    <mxGeometry relative="1" as="geometry">
                        <mxPoint x="-30" y="1430" as="targetPoint"/>
                        <Array as="points">
                            <mxPoint x="30" y="500"/>
                            <mxPoint x="30" y="1610"/>
                        </Array>
                    </mxGeometry>
                </mxCell>
                <mxCell id="47" value="IF userGame = &quot;piedra&quot;" style="rhombus;whiteSpace=wrap;html=1;" parent="1" vertex="1">
                    <mxGeometry x="95" y="460" width="180" height="80" as="geometry"/>
                </mxCell>
                <mxCell id="54" value="si" style="edgeStyle=orthogonalEdgeStyle;rounded=0;orthogonalLoop=1;jettySize=auto;html=1;fontSize=15;exitX=1;exitY=0.5;exitDx=0;exitDy=0;" parent="1" source="49" target="53" edge="1">
                    <mxGeometry relative="1" as="geometry">
                        <mxPoint x="505" y="500" as="sourcePoint"/>
                    </mxGeometry>
                </mxCell>
                <mxCell id="60" value="si no" style="edgeStyle=orthogonalEdgeStyle;rounded=0;orthogonalLoop=1;jettySize=auto;html=1;fontSize=15;" parent="1" source="49" target="59" edge="1">
                    <mxGeometry relative="1" as="geometry"/>
                </mxCell>
                <mxCell id="49" value="IF randGame = 1" style="rhombus;whiteSpace=wrap;html=1;" parent="1" vertex="1">
                    <mxGeometry x="305" y="460" width="180" height="80" as="geometry"/>
                </mxCell>
                <mxCell id="52" value="&lt;b style=&quot;font-size: 15px;&quot;&gt;Supuestos:&lt;/b&gt;&lt;br style=&quot;font-size: 15px;&quot;&gt;-piedra = 0&lt;br style=&quot;font-size: 15px;&quot;&gt;-papel = 1&lt;br style=&quot;font-size: 15px;&quot;&gt;-tijera = 2" style="text;html=1;strokeColor=none;fillColor=none;align=left;verticalAlign=middle;whiteSpace=wrap;rounded=0;fontSize=15;" parent="1" vertex="1">
                    <mxGeometry x="10" y="130" width="100" height="90" as="geometry"/>
                </mxCell>
                <mxCell id="56" value="" style="edgeStyle=orthogonalEdgeStyle;rounded=0;orthogonalLoop=1;jettySize=auto;html=1;fontSize=15;" parent="1" source="53" target="63" edge="1">
                    <mxGeometry relative="1" as="geometry">
                        <mxPoint x="645" y="500" as="targetPoint"/>
                    </mxGeometry>
                </mxCell>
                <mxCell id="53" value="&amp;nbsp;puts Computador juega papel. Perdiste" style="shape=parallelogram;perimeter=parallelogramPerimeter;whiteSpace=wrap;html=1;fixedSize=1;" parent="1" vertex="1">
                    <mxGeometry x="525" y="470" width="100" height="60" as="geometry"/>
                </mxCell>
                <mxCell id="66" value="no" style="edgeStyle=orthogonalEdgeStyle;rounded=0;orthogonalLoop=1;jettySize=auto;html=1;fontSize=15;" parent="1" source="59" target="65" edge="1">
                    <mxGeometry relative="1" as="geometry">
                        <Array as="points">
                            <mxPoint x="395" y="740"/>
                        </Array>
                    </mxGeometry>
                </mxCell>
                <mxCell id="148" value="si" style="edgeStyle=orthogonalEdgeStyle;rounded=0;orthogonalLoop=1;jettySize=auto;html=1;exitX=1;exitY=0.5;exitDx=0;exitDy=0;entryX=0;entryY=0.5;entryDx=0;entryDy=0;fontSize=15;" parent="1" source="59" target="61" edge="1">
                    <mxGeometry relative="1" as="geometry"/>
                </mxCell>
                <mxCell id="59" value="ELSIF randGame = 2" style="rhombus;whiteSpace=wrap;html=1;" parent="1" vertex="1">
                    <mxGeometry x="305" y="590" width="180" height="80" as="geometry"/>
                </mxCell>
                <mxCell id="64" value="" style="edgeStyle=orthogonalEdgeStyle;rounded=0;orthogonalLoop=1;jettySize=auto;html=1;fontSize=15;" parent="1" source="61" target="63" edge="1">
                    <mxGeometry relative="1" as="geometry"/>
                </mxCell>
                <mxCell id="61" value="&amp;nbsp;puts Computador juega tijera. Ganaste" style="shape=parallelogram;perimeter=parallelogramPerimeter;whiteSpace=wrap;html=1;fixedSize=1;" parent="1" vertex="1">
                    <mxGeometry x="515" y="600" width="100" height="60" as="geometry"/>
                </mxCell>
                <mxCell id="63" value="Fin" style="ellipse;whiteSpace=wrap;html=1;fillColor=#1ba1e2;strokeColor=#006EAF;fontColor=#ffffff;" parent="1" vertex="1">
                    <mxGeometry x="645" y="590" width="120" height="80" as="geometry"/>
                </mxCell>
                <mxCell id="69" value="" style="edgeStyle=orthogonalEdgeStyle;rounded=0;orthogonalLoop=1;jettySize=auto;html=1;fontSize=15;entryX=0.5;entryY=1;entryDx=0;entryDy=0;" parent="1" source="65" target="63" edge="1">
                    <mxGeometry relative="1" as="geometry">
                        <mxPoint x="645" y="740" as="targetPoint"/>
                    </mxGeometry>
                </mxCell>
                <mxCell id="65" value="&amp;nbsp;puts Computador juega piedra. Empate" style="shape=parallelogram;perimeter=parallelogramPerimeter;whiteSpace=wrap;html=1;fixedSize=1;" parent="1" vertex="1">
                    <mxGeometry x="505" y="710" width="100" height="60" as="geometry"/>
                </mxCell>
                <mxCell id="117" value="si no" style="edgeStyle=orthogonalEdgeStyle;rounded=0;orthogonalLoop=1;jettySize=auto;html=1;fontSize=15;" parent="1" source="72" target="116" edge="1">
                    <mxGeometry relative="1" as="geometry"/>
                </mxCell>
                <mxCell id="72" value="ELSIF userGame = &quot;papel&quot;" style="rhombus;whiteSpace=wrap;html=1;" parent="1" vertex="1">
                    <mxGeometry x="95" y="824" width="180" height="80" as="geometry"/>
                </mxCell>
                <mxCell id="74" value="si" style="edgeStyle=orthogonalEdgeStyle;rounded=0;orthogonalLoop=1;jettySize=auto;html=1;exitX=1;exitY=0.5;exitDx=0;exitDy=0;fontSize=15;" parent="1" source="72" target="77" edge="1">
                    <mxGeometry relative="1" as="geometry">
                        <mxPoint x="295" y="864" as="sourcePoint"/>
                    </mxGeometry>
                </mxCell>
                <mxCell id="75" value="si" style="edgeStyle=orthogonalEdgeStyle;rounded=0;orthogonalLoop=1;jettySize=auto;html=1;fontSize=15;exitX=1;exitY=0.5;exitDx=0;exitDy=0;" parent="1" source="77" target="80" edge="1">
                    <mxGeometry relative="1" as="geometry">
                        <mxPoint x="515" y="864" as="sourcePoint"/>
                    </mxGeometry>
                </mxCell>
                <mxCell id="76" value="si no" style="edgeStyle=orthogonalEdgeStyle;rounded=0;orthogonalLoop=1;jettySize=auto;html=1;fontSize=15;" parent="1" source="77" target="86" edge="1">
                    <mxGeometry relative="1" as="geometry"/>
                </mxCell>
                <mxCell id="77" value="IF randGame = 0" style="rhombus;whiteSpace=wrap;html=1;" parent="1" vertex="1">
                    <mxGeometry x="315" y="824" width="180" height="80" as="geometry"/>
                </mxCell>
                <mxCell id="79" value="" style="edgeStyle=orthogonalEdgeStyle;rounded=0;orthogonalLoop=1;jettySize=auto;html=1;fontSize=15;entryX=0.5;entryY=0;entryDx=0;entryDy=0;" parent="1" source="80" target="89" edge="1">
                    <mxGeometry relative="1" as="geometry">
                        <mxPoint x="655" y="864" as="targetPoint"/>
                    </mxGeometry>
                </mxCell>
                <mxCell id="80" value="&amp;nbsp;puts Computador juega piedra. Ganaste" style="shape=parallelogram;perimeter=parallelogramPerimeter;whiteSpace=wrap;html=1;fixedSize=1;" parent="1" vertex="1">
                    <mxGeometry x="535" y="834" width="100" height="60" as="geometry"/>
                </mxCell>
                <mxCell id="84" value="si" style="edgeStyle=orthogonalEdgeStyle;rounded=0;orthogonalLoop=1;jettySize=auto;html=1;fontSize=15;exitX=1;exitY=0.5;exitDx=0;exitDy=0;" parent="1" source="86" target="88" edge="1">
                    <mxGeometry relative="1" as="geometry">
                        <mxPoint x="515" y="992" as="sourcePoint"/>
                    </mxGeometry>
                </mxCell>
                <mxCell id="85" value="no" style="edgeStyle=orthogonalEdgeStyle;rounded=0;orthogonalLoop=1;jettySize=auto;html=1;fontSize=15;" parent="1" source="86" target="91" edge="1">
                    <mxGeometry relative="1" as="geometry">
                        <Array as="points">
                            <mxPoint x="405" y="1104"/>
                        </Array>
                    </mxGeometry>
                </mxCell>
                <mxCell id="86" value="ELSIF randGame = 2" style="rhombus;whiteSpace=wrap;html=1;" parent="1" vertex="1">
                    <mxGeometry x="315" y="950" width="180" height="84" as="geometry"/>
                </mxCell>
                <mxCell id="87" value="" style="edgeStyle=orthogonalEdgeStyle;rounded=0;orthogonalLoop=1;jettySize=auto;html=1;fontSize=15;" parent="1" source="88" target="89" edge="1">
                    <mxGeometry relative="1" as="geometry"/>
                </mxCell>
                <mxCell id="88" value="puts Computador juega tijera. Perdiste" style="shape=parallelogram;perimeter=parallelogramPerimeter;whiteSpace=wrap;html=1;fixedSize=1;" parent="1" vertex="1">
                    <mxGeometry x="535" y="962" width="100" height="60" as="geometry"/>
                </mxCell>
                <mxCell id="89" value="Fin" style="ellipse;whiteSpace=wrap;html=1;fillColor=#1ba1e2;strokeColor=#006EAF;fontColor=#ffffff;" parent="1" vertex="1">
                    <mxGeometry x="665" y="952" width="120" height="80" as="geometry"/>
                </mxCell>
                <mxCell id="90" value="" style="edgeStyle=orthogonalEdgeStyle;rounded=0;orthogonalLoop=1;jettySize=auto;html=1;fontSize=15;entryX=0.5;entryY=1;entryDx=0;entryDy=0;" parent="1" source="91" target="89" edge="1">
                    <mxGeometry relative="1" as="geometry">
                        <mxPoint x="655" y="1104" as="targetPoint"/>
                    </mxGeometry>
                </mxCell>
                <mxCell id="91" value="puts Computador juega papel. Empate" style="shape=parallelogram;perimeter=parallelogramPerimeter;whiteSpace=wrap;html=1;fixedSize=1;" parent="1" vertex="1">
                    <mxGeometry x="515" y="1074" width="100" height="60" as="geometry"/>
                </mxCell>
                <mxCell id="116" value="ELSIF userGame = &quot;tijera&quot;" style="rhombus;whiteSpace=wrap;html=1;" parent="1" vertex="1">
                    <mxGeometry x="95" y="1200" width="180" height="80" as="geometry"/>
                </mxCell>
                <mxCell id="118" value="si" style="edgeStyle=orthogonalEdgeStyle;rounded=0;orthogonalLoop=1;jettySize=auto;html=1;exitX=1;exitY=0.5;exitDx=0;exitDy=0;" parent="1" source="116" target="121" edge="1">
                    <mxGeometry relative="1" as="geometry">
                        <mxPoint x="245" y="1300" as="sourcePoint"/>
                    </mxGeometry>
                </mxCell>
                <mxCell id="119" value="si" style="edgeStyle=orthogonalEdgeStyle;rounded=0;orthogonalLoop=1;jettySize=auto;html=1;fontSize=15;exitX=1;exitY=0.5;exitDx=0;exitDy=0;" parent="1" source="121" target="124" edge="1">
                    <mxGeometry relative="1" as="geometry">
                        <mxPoint x="515" y="1240" as="sourcePoint"/>
                    </mxGeometry>
                </mxCell>
                <mxCell id="150" value="si no" style="edgeStyle=orthogonalEdgeStyle;rounded=0;orthogonalLoop=1;jettySize=auto;html=1;exitX=0.5;exitY=1;exitDx=0;exitDy=0;entryX=0.5;entryY=0;entryDx=0;entryDy=0;fontSize=15;" parent="1" source="121" target="130" edge="1">
                    <mxGeometry relative="1" as="geometry"/>
                </mxCell>
                <mxCell id="121" value="IF randGame = 0" style="rhombus;whiteSpace=wrap;html=1;" parent="1" vertex="1">
                    <mxGeometry x="315" y="1200" width="180" height="80" as="geometry"/>
                </mxCell>
                <mxCell id="123" value="" style="edgeStyle=orthogonalEdgeStyle;rounded=0;orthogonalLoop=1;jettySize=auto;html=1;fontSize=15;entryX=0.5;entryY=0;entryDx=0;entryDy=0;" parent="1" source="124" target="133" edge="1">
                    <mxGeometry relative="1" as="geometry">
                        <mxPoint x="655" y="1240" as="targetPoint"/>
                    </mxGeometry>
                </mxCell>
                <mxCell id="124" value="&amp;nbsp;puts Computador juega piedra. Perdiste" style="shape=parallelogram;perimeter=parallelogramPerimeter;whiteSpace=wrap;html=1;fixedSize=1;" parent="1" vertex="1">
                    <mxGeometry x="535" y="1210" width="100" height="60" as="geometry"/>
                </mxCell>
                <mxCell id="128" value="si" style="edgeStyle=orthogonalEdgeStyle;rounded=0;orthogonalLoop=1;jettySize=auto;html=1;fontSize=15;exitX=1;exitY=0.5;exitDx=0;exitDy=0;" parent="1" source="130" target="132" edge="1">
                    <mxGeometry relative="1" as="geometry">
                        <mxPoint x="515" y="1368" as="sourcePoint"/>
                    </mxGeometry>
                </mxCell>
                <mxCell id="129" value="no" style="edgeStyle=orthogonalEdgeStyle;rounded=0;orthogonalLoop=1;jettySize=auto;html=1;fontSize=15;" parent="1" source="130" target="135" edge="1">
                    <mxGeometry relative="1" as="geometry">
                        <Array as="points">
                            <mxPoint x="405" y="1480"/>
                        </Array>
                    </mxGeometry>
                </mxCell>
                <mxCell id="130" value="ELSIF randGame = 1" style="rhombus;whiteSpace=wrap;html=1;" parent="1" vertex="1">
                    <mxGeometry x="315" y="1326" width="180" height="84" as="geometry"/>
                </mxCell>
                <mxCell id="131" value="" style="edgeStyle=orthogonalEdgeStyle;rounded=0;orthogonalLoop=1;jettySize=auto;html=1;fontSize=15;" parent="1" source="132" target="133" edge="1">
                    <mxGeometry relative="1" as="geometry"/>
                </mxCell>
                <mxCell id="132" value="&amp;nbsp;puts Computador juega papel. Ganaste&amp;nbsp;" style="shape=parallelogram;perimeter=parallelogramPerimeter;whiteSpace=wrap;html=1;fixedSize=1;" parent="1" vertex="1">
                    <mxGeometry x="525" y="1340" width="100" height="60" as="geometry"/>
                </mxCell>
                <mxCell id="133" value="Fin" style="ellipse;whiteSpace=wrap;html=1;fillColor=#1ba1e2;strokeColor=#006EAF;fontColor=#ffffff;" parent="1" vertex="1">
                    <mxGeometry x="655" y="1330" width="120" height="80" as="geometry"/>
                </mxCell>
                <mxCell id="134" value="" style="edgeStyle=orthogonalEdgeStyle;rounded=0;orthogonalLoop=1;jettySize=auto;html=1;fontSize=15;entryX=0.5;entryY=1;entryDx=0;entryDy=0;" parent="1" source="135" target="133" edge="1">
                    <mxGeometry relative="1" as="geometry">
                        <mxPoint x="655" y="1480" as="targetPoint"/>
                    </mxGeometry>
                </mxCell>
                <mxCell id="135" value="puts Computador juega papel. Empate" style="shape=parallelogram;perimeter=parallelogramPerimeter;whiteSpace=wrap;html=1;fixedSize=1;" parent="1" vertex="1">
                    <mxGeometry x="515" y="1450" width="100" height="60" as="geometry"/>
                </mxCell>
                <mxCell id="142" value="" style="edgeStyle=orthogonalEdgeStyle;rounded=0;orthogonalLoop=1;jettySize=auto;html=1;fontSize=15;" parent="1" source="139" target="141" edge="1">
                    <mxGeometry relative="1" as="geometry"/>
                </mxCell>
                <mxCell id="139" value="&amp;nbsp;puts Argumentos invalidos." style="shape=parallelogram;perimeter=parallelogramPerimeter;whiteSpace=wrap;html=1;fixedSize=1;" parent="1" vertex="1">
                    <mxGeometry x="485" y="1570" width="120" height="60" as="geometry"/>
                </mxCell>
                <mxCell id="141" value="Fin" style="ellipse;whiteSpace=wrap;html=1;fillColor=#1ba1e2;strokeColor=#006EAF;fontColor=#ffffff;" parent="1" vertex="1">
                    <mxGeometry x="650" y="1560" width="120" height="80" as="geometry"/>
                </mxCell>
                <mxCell id="145" value="Diagrama Juego.rb" style="text;html=1;strokeColor=none;fillColor=none;align=center;verticalAlign=middle;whiteSpace=wrap;rounded=0;fontSize=25;" parent="1" vertex="1">
                    <mxGeometry x="40" y="70" width="40" height="20" as="geometry"/>
                </mxCell>
            </root>
        </mxGraphModel>
    </diagram>
</mxfile>